<?xml version="1.0" encoding="UTF-8" standalone="no"?><!DOCTYPE svg PUBLIC "-//W3C//DTD SVG 1.1//EN" "http://www.w3.org/Graphics/SVG/1.1/DTD/svg11.dtd"><svg width="100%" height="100%" viewBox="0 0 60 60" version="1.1" xmlns="http://www.w3.org/2000/svg" xmlns:xlink="http://www.w3.org/1999/xlink" xml:space="preserve" xmlns:serif="http://www.serif.com/" style="fill-rule:evenodd;clip-rule:evenodd;stroke-linecap:square;stroke-linejoin:round;stroke-miterlimit:1.5;"><path d="M15.287,16.66l-0,37.783" style="fill:none;stroke:#ebebeb;stroke-width:1px;"/><path d="M5.491,16.715l0,37.783" style="fill:none;stroke:#ebebeb;stroke-width:1px;"/><path d="M25.083,16.66l-0,37.783" style="fill:none;stroke:#ebebeb;stroke-width:1px;"/><path d="M34.878,16.66l0,37.783" style="fill:none;stroke:#ebebeb;stroke-width:1px;"/><path d="M54.969,12.162l-49.969,0l-0,5l49.969,0l0,-5Z" style="fill:#ebebeb;"/><path d="M54.47,29.282l-48.979,-0" style="fill:none;stroke:#ebebeb;stroke-width:1px;"/><path d="M54.47,41.89l-48.979,-0" style="fill:none;stroke:#ebebeb;stroke-width:1px;"/><path d="M54.47,54.498l-48.979,-0" style="fill:none;stroke:#ebebeb;stroke-width:1px;"/><path d="M44.674,16.66l-0,37.783" style="fill:none;stroke:#ebebeb;stroke-width:1px;"/><path d="M54.47,16.496l-0,37.783" style="fill:none;stroke:#ebebeb;stroke-width:1px;"/><circle cx="44.674" cy="35.606" r="3.401" style="fill:#f0287f;stroke:#f0287f;stroke-width:1px;stroke-linecap:round;"/><circle cx="15.287" cy="5.435" r="3.401" style="fill:none;stroke:#f0287f;stroke-width:1px;stroke-linecap:round;"/><circle cx="54.47" cy="5.435" r="3.401" style="fill:none;stroke:#f0287f;stroke-width:1px;stroke-linecap:round;"/><circle cx="24.998" cy="35.586" r="3.401" style="fill:#f0287f;stroke:#f0287f;stroke-width:1px;stroke-linecap:round;"/><circle cx="35.008" cy="35.606" r="3.401" style="fill:#f0287f;stroke:#f0287f;stroke-width:1px;stroke-linecap:round;"/><path d="M4.784,5.435l-3.048,3.048c-0.195,0.195 -0.195,0.512 0,0.707c0.195,0.195 0.512,0.195 0.707,0l3.048,-3.048l3.048,3.048c0.195,0.195 0.512,0.195 0.707,0c0.195,-0.195 0.195,-0.512 0,-0.707l-3.048,-3.048l3.048,-3.048c0.195,-0.195 0.195,-0.512 0,-0.707c-0.195,-0.195 -0.512,-0.195 -0.707,0l-3.048,3.048l-3.048,-3.048c-0.195,-0.195 -0.512,-0.195 -0.707,0c-0.195,0.195 -0.195,0.512 0,0.707l3.048,3.048Z" style="fill:#f0287f;"/></svg>