<?xml version="1.0" encoding="UTF-8" standalone="no"?><!DOCTYPE svg PUBLIC "-//W3C//DTD SVG 1.1//EN" "http://www.w3.org/Graphics/SVG/1.1/DTD/svg11.dtd"><svg width="100%" height="100%" viewBox="0 0 610 129" version="1.1" xmlns="http://www.w3.org/2000/svg" xmlns:xlink="http://www.w3.org/1999/xlink" xml:space="preserve" xmlns:serif="http://www.serif.com/" style="fill-rule:evenodd;clip-rule:evenodd;stroke-linecap:round;stroke-linejoin:round;stroke-miterlimit:1.5;"><path vector-effect="non-scaling-stroke" d="M609.388,13.984c-0,-4.425 -3.593,-8.017 -8.017,-8.017l-592.854,13.756c-4.425,0 -8.017,3.593 -8.017,8.017l0,73.044c0,4.425 3.592,8.017 8.017,8.017l592.854,13.756c4.424,0 8.017,-3.592 8.017,-8.017l-0,-100.556Z" style="fill:none;stroke:#fff;stroke-width:1px;"/><path vector-effect="non-scaling-stroke" d="M101.981,17.555l0,93.415" style="fill:none;stroke:#fff;stroke-width:1px;"/><path vector-effect="non-scaling-stroke" d="M558.647,6.958l0.969,114.631" style="fill:none;stroke:#fff;stroke-width:1px;"/><path vector-effect="non-scaling-stroke" d="M152.722,16.377l-0,95.77" style="fill:none;stroke:#fff;stroke-width:1px;"/><path vector-effect="non-scaling-stroke" d="M203.463,15.2l-0,98.124" style="fill:none;stroke:#fff;stroke-width:1px;"/><path vector-effect="non-scaling-stroke" d="M254.203,14.023l0,100.479" style="fill:none;stroke:#fff;stroke-width:1px;"/><path vector-effect="non-scaling-stroke" d="M304.944,12.845l-0,102.834" style="fill:none;stroke:#fff;stroke-width:1px;"/><path vector-effect="non-scaling-stroke" d="M355.684,11.668l0,105.189" style="fill:none;stroke:#fff;stroke-width:1px;"/><path vector-effect="non-scaling-stroke" d="M406.425,10.49l0,107.544" style="fill:none;stroke:#fff;stroke-width:1px;"/><path vector-effect="non-scaling-stroke" d="M457.166,9.313l-0,109.898" style="fill:none;stroke:#fff;stroke-width:1px;"/><path vector-effect="non-scaling-stroke" d="M507.906,8.136l0,112.253" style="fill:none;stroke:#fff;stroke-width:1px;"/><path vector-effect="non-scaling-stroke" d="M51.241,18.732l-0,91.06" style="fill:none;stroke:#fff;stroke-width:1px;"/><circle cx="127.272" cy="64.262" r="4.028" style="fill:#fff;"/><circle cx="330.69" cy="64.262" r="4.028" style="fill:#fff;"/><circle cx="433.194" cy="64.262" r="4.028" style="fill:#fff;"/><circle cx="585.361" cy="91.775" r="4.028" style="fill:#fff;"/><circle cx="585.361" cy="36.749" r="4.028" style="fill:#fff;"/><circle cx="228.584" cy="64.262" r="4.028" style="fill:#fff;"/></svg>